<?xml version="1.0" encoding="utf-8"?>
<!-- Generator: Adobe Illustrator 19.0.0, SVG Export Plug-In . SVG Version: 6.00 Build 0)  -->
<svg version="1.1" id="Layer_1" xmlns="http://www.w3.org/2000/svg" xmlns:xlink="http://www.w3.org/1999/xlink" x="0px" y="0px"
	 viewBox="0 0 700 700" style="enable-background:new 0 0 700 700;" xml:space="preserve">
<style type="text/css">
	.st0{fill:#F6F7FC;}
	.st1{display:none;}
	.st2{display:inline;fill:url(#XMLID_36_);}
	.st3{display:inline;fill:#6181B6;}
	.st4{display:inline;}
	.st5{fill:#FFFFFF;}
	.st6{fill:#000004;}
	.st7{fill:#EF533F;}
	.st8{fill:#6D6D6D;}
</style>
<g id="XMLID_38_">
	<circle id="XMLID_39_" class="st0" cx="350" cy="350" r="256.5"/>
</g>
<g id="XMLID_1_" class="st1">
	
		<radialGradient id="XMLID_36_" cx="363.5685" cy="316.9923" r="742.9346" gradientTransform="matrix(0.463 0 0 -0.463 77.0014 407.4812)" gradientUnits="userSpaceOnUse">
		<stop  offset="0" style="stop-color:#FFFFFF"/>
		<stop  offset="0.5" style="stop-color:#4C6B97"/>
		<stop  offset="1" style="stop-color:#231F20"/>
	</radialGradient>
	<ellipse id="XMLID_11_" class="st2" cx="350" cy="350" rx="261.9" ry="137.7"/>
	<ellipse id="XMLID_10_" class="st3" cx="350" cy="350" rx="251.7" ry="127.5"/>
	<g id="XMLID_22_" class="st4">
		<path id="XMLID_26_" class="st5" d="M401,391.3l12.5-64.3c2.9-14.5,0.4-25.4-7-32.1c-7.2-6.5-19.4-9.8-37.4-9.8h-21.7l6.1-31.9
			c0.2-1.2,0-2.5-0.8-3.5c-0.8-1-1.8-1.4-3.1-1.4h-29.9c-2,0-3.7,1.4-4.1,3.3l-13.3,68.1c-1.2-7.8-4.1-14.3-9-19.6
			c-8.8-10-22.5-15.1-41.1-15.1h-57.5c-2,0-3.7,1.4-4.1,3.3l-26.8,138.3c-0.2,1.2,0,2.5,0.8,3.5c0.8,1,1.8,1.4,3.1,1.4h30.1
			c2,0,3.7-1.4,4.1-3.3l6.5-33.4h22.3c11.7,0,21.7-1.2,29.3-3.7c8-2.7,15.1-7,21.5-12.9c5.1-4.7,9.4-10,12.7-15.8l-5.3,27.6
			c-0.2,1.2,0,2.5,0.8,3.5s1.8,1.4,3.1,1.4h29.9c2,0,3.7-1.4,4.1-3.3l14.7-75.7h20.5c8.8,0,11.3,1.6,12.1,2.5
			c0.6,0.6,1.8,3.1,0.4,10.6l-11.9,61.2c-0.2,1.2,0,2.5,0.8,3.5c0.8,1,1.8,1.4,3.1,1.4h30.7C398.9,394.6,400.5,393.2,401,391.3z
			 M262.6,338.1c-1.8,9.6-5.3,16.6-10.4,20.5c-5.1,3.9-13.5,5.9-24.6,5.9h-13.3l9.6-49.5h17.2c12.7,0,17.8,2.7,19.8,4.9
			C263.6,323.2,264.3,329.5,262.6,338.1z"/>
		<path id="XMLID_23_" class="st5" d="M528.6,300.1c-8.8-10-22.5-15.1-41.1-15.1h-57.9c-2,0-3.7,1.4-4.1,3.3l-26.8,138.1
			c-0.2,1.2,0,2.5,0.8,3.5c0.8,1,1.8,1.4,3.1,1.4h30.1c2,0,3.7-1.4,4.1-3.3l6.5-33.4h22.3c11.7,0,21.7-1.2,29.3-3.7
			c8-2.7,15.1-7,21.5-12.9c5.3-4.9,9.8-10.4,13.1-16.4s5.7-12.5,7.2-19.6C540.1,324.2,537.4,310.3,528.6,300.1z M497.3,338.1
			c-1.8,9.6-5.3,16.6-10.4,20.5c-5.1,3.9-13.5,5.9-24.6,5.9H449l9.6-49.5h17.2c12.7,0,17.8,2.7,19.8,4.9
			C498.6,323.2,499.2,329.5,497.3,338.1z"/>
	</g>
	<g id="XMLID_2_" class="st4">
		<path id="XMLID_19_" class="st6" d="M241.1,310.9c11.5,0,19,2,22.9,6.3c3.9,4.3,4.7,11.5,2.7,21.7c-2,10.6-6.1,18.4-12.1,22.9
			c-5.9,4.5-14.9,6.8-27,6.8h-18.2l11.3-57.7H241.1z M167.9,427.1H198l7.2-36.6h25.8c11.5,0,20.7-1.2,28-3.7
			c7.4-2.5,13.9-6.3,20.1-12.1c5.1-4.7,9.2-9.8,12.3-15.3c3.1-5.5,5.3-11.7,6.5-18.4c3.3-16.4,0.8-29.1-7.2-38.3
			c-8-9.2-20.7-13.7-38.1-13.7h-57.9L167.9,427.1z"/>
		<path id="XMLID_3_" class="st6" d="M319.9,252.4h29.9l-7.2,36.6h26.6c16.8,0,28.2,2.9,34.6,8.8c6.3,5.9,8.2,15.3,5.7,28.4
			l-12.5,64.3h-30.3l11.9-61.2c1.4-7,0.8-11.7-1.4-14.1c-2.3-2.5-7.4-3.9-14.9-3.9h-23.9L323,390.5h-29.9L319.9,252.4z"/>
		<path id="XMLID_15_" class="st6" d="M475.8,310.9c11.5,0,19,2,22.9,6.3s4.7,11.5,2.7,21.7c-2,10.6-6.1,18.4-12.1,22.9
			c-5.9,4.5-14.9,6.8-27,6.8h-18.2l11.3-57.7H475.8z M402.6,427.1h30.1l7.2-36.6h25.8c11.5,0,20.7-1.2,28-3.7
			c7.4-2.5,13.9-6.3,20.1-12.1c5.1-4.7,9.2-9.8,12.3-15.3s5.3-11.7,6.5-18.4c3.3-16.4,0.8-29.1-7.2-38.3c-8-9.2-20.7-13.7-38.1-13.7
			h-57.9L402.6,427.1z"/>
	</g>
</g>
<g id="XMLID_54_">
	<path id="XMLID_55_" class="st7" d="M399.8,441c-2.5,0-4.9-1.3-6.2-3.5l-54.7-91.2L236.7,374c-3.3,0.9-6.7-0.6-8.3-3.6L109,145.8
		c-1.1-2.1-1.1-4.6,0-6.7c1.1-2.1,3.1-3.5,5.5-3.9l101.5-13.7c2.9-0.4,5.7,1,7.2,3.4l122.6,204.4L488,290.7l-47.5-67
		c-1.4-2-1.7-4.5-0.9-6.7c0.8-2.2,2.8-3.9,5.1-4.5l66.6-15.7c2.7-0.6,5.6,0.3,7.3,2.5l57.6,72c1.5,1.9,2,4.4,1.2,6.8
		c-0.8,2.3-2.6,4.1-5,4.7l-60.7,16.5l52.9,74.6c1.3,1.9,1.7,4.2,1,6.4c-0.7,2.2-2.4,3.9-4.5,4.6l-159,55.7
		C401.4,440.8,400.6,441,399.8,441z M353.4,342.3l49.6,82.6l144.4-50.6l-50.4-71.1L353.4,342.3z M126.7,148.2l111.8,210.4l92.7-25.2
		l-118-196.8L126.7,148.2z M458.5,224.1l44.4,62.6l55.2-15l-47.9-59.8L458.5,224.1z"/>
</g>
<g id="XMLID_34_">
	<path id="XMLID_52_" class="st8" d="M211.7,461.7h6v65.1h-6V461.7z"/>
	<path id="XMLID_49_" class="st8" d="M277.1,479.8v47h-6v-8.1c-2.5,3.1-5.4,5.4-8.5,7c-3.2,1.6-6.6,2.3-10.3,2.3
		c-6.6,0-12.3-2.4-17-7.2c-4.7-4.8-7.1-10.7-7.1-17.6c0-6.8,2.4-12.5,7.1-17.4c4.7-4.8,10.5-7.2,17.1-7.2c3.9,0,7.3,0.8,10.5,2.5
		c3.1,1.6,5.9,4.1,8.2,7.4v-8.6H277.1z M253,484.4c-3.4,0-6.5,0.8-9.3,2.5c-2.8,1.7-5.1,4-6.8,7c-1.7,3-2.5,6.2-2.5,9.5
		c0,3.3,0.8,6.5,2.5,9.5c1.7,3,4,5.4,6.8,7.1c2.9,1.7,5.9,2.5,9.2,2.5c3.3,0,6.4-0.8,9.4-2.5c3-1.7,5.2-3.9,6.8-6.8
		c1.6-2.8,2.4-6.1,2.4-9.6c0-5.4-1.8-10-5.4-13.6S258.2,484.4,253,484.4z"/>
	<path id="XMLID_47_" class="st8" d="M288.4,479.8h6.2v6.9c1.8-2.7,3.8-4.7,5.8-6.1c2-1.3,4.2-2,6.4-2c1.7,0,3.5,0.5,5.4,1.6
		l-3.2,5.1c-1.3-0.5-2.3-0.8-3.2-0.8c-2,0-4,0.8-5.8,2.5c-1.9,1.7-3.3,4.2-4.3,7.7c-0.7,2.7-1.1,8.1-1.1,16.2v15.9h-6.2V479.8z"/>
	<path id="XMLID_44_" class="st8" d="M364.1,479.8v47h-6v-8.1c-2.5,3.1-5.4,5.4-8.5,7s-6.6,2.3-10.3,2.3c-6.6,0-12.3-2.4-17-7.2
		c-4.7-4.8-7.1-10.7-7.1-17.6c0-6.8,2.4-12.5,7.1-17.4c4.7-4.8,10.5-7.2,17.1-7.2c3.9,0,7.3,0.8,10.5,2.5c3.1,1.6,5.9,4.1,8.2,7.4
		v-8.6H364.1z M339.9,484.4c-3.4,0-6.5,0.8-9.3,2.5c-2.8,1.7-5.1,4-6.8,7c-1.7,3-2.5,6.2-2.5,9.5c0,3.3,0.8,6.5,2.5,9.5
		c1.7,3,4,5.4,6.8,7.1c2.9,1.7,5.9,2.5,9.2,2.5c3.3,0,6.4-0.8,9.4-2.5c3-1.7,5.2-3.9,6.8-6.8c1.6-2.8,2.4-6.1,2.4-9.6
		c0-5.4-1.8-10-5.4-13.6S345.2,484.4,339.9,484.4z"/>
	<path id="XMLID_42_" class="st8" d="M373.2,479.8h6.4l15.8,34.2l15.6-34.2h6.5l-21.5,47h-1.1L373.2,479.8z"/>
	<path id="XMLID_37_" class="st8" d="M466.2,511.2l5.1,2.7c-1.7,3.3-3.6,5.9-5.8,7.9c-2.2,2-4.7,3.5-7.4,4.6
		c-2.7,1.1-5.8,1.6-9.3,1.6c-7.7,0-13.7-2.5-18-7.5c-4.3-5-6.5-10.7-6.5-17c0-6,1.8-11.3,5.5-15.9c4.6-5.9,10.8-8.9,18.6-8.9
		c8,0,14.4,3,19.2,9.1c3.4,4.3,5.1,9.6,5.2,16.1h-42.3c0.1,5.5,1.9,9.9,5.2,13.4c3.4,3.5,7.5,5.2,12.5,5.2c2.4,0,4.7-0.4,7-1.2
		c2.3-0.8,4.2-1.9,5.8-3.3C462.7,516.5,464.4,514.3,466.2,511.2z M466.2,498.6c-0.8-3.2-2-5.8-3.5-7.7c-1.5-1.9-3.6-3.5-6.1-4.7
		c-2.5-1.2-5.2-1.8-8-1.8c-4.6,0-8.6,1.5-11.9,4.4c-2.4,2.2-4.3,5.4-5.5,9.7H466.2z"/>
	<path id="XMLID_35_" class="st8" d="M483.2,461.7h6v65.1h-6V461.7z"/>
</g>
</svg>
