<?xml version="1.0" encoding="UTF-8"?>
<svg width="700px" height="700px" viewBox="0 0 700 700" version="1.1" xmlns="http://www.w3.org/2000/svg" xmlns:xlink="http://www.w3.org/1999/xlink">
    <title>Oval</title>
    <g id="Page-1" stroke="none" stroke-width="1" fill="none" fill-rule="evenodd">
        <circle id="Oval" fill="#F6F7FC" fill-rule="nonzero" cx="350.5" cy="350.5" r="256.5"></circle>
        <g id="laravel" transform="translate(182.000000, 166.000000)" fill="#FF2D20" fill-rule="nonzero">
            <path d="M372.789664,86.8708591 C372.927972,87.3827953 373,87.9106324 373,88.4409223 L373,170.865488 C373,173.018859 371.848084,175.007698 369.980183,176.079 L300.802332,215.909026 L300.802332,294.855413 C300.802332,297.003921 299.660511,298.987159 297.797539,300.068925 L153.394691,383.199643 C153.064164,383.38745 152.703589,383.507646 152.343014,383.635355 C152.207798,383.680428 152.080094,383.763063 151.937367,383.800625 C150.927936,384.066458 149.866884,384.066458 148.857454,383.800625 C148.69219,383.755551 148.54195,383.665404 148.384199,383.605306 C148.053671,383.48511 147.70812,383.379938 147.392617,383.199643 L3.01981713,300.068925 C1.15305344,298.996481 0,297.008365 0,294.855413 L0,47.5817159 C0,47.0408328 0.0751198292,46.5149743 0.210335522,46.0041403 C0.255407419,45.8313582 0.36057518,45.6736007 0.420671044,45.5008186 C0.533350787,45.1853035 0.638518548,44.8622761 0.803782173,44.5692978 C0.916461916,44.3739789 1.08172554,44.2162214 1.21694123,44.035927 C1.38971684,43.7955346 1.54746848,43.5476298 1.75029202,43.3372864 C1.92306763,43.1645043 2.14842712,43.0367959 2.34373867,42.8865506 C2.56158618,42.7062562 2.75689773,42.5109373 3.00479317,42.3682043 L3.01230515,42.3682043 L75.202461,0.802844982 C77.0626601,-0.267614994 79.3518483,-0.267614994 81.2120474,0.802844982 L153.402203,42.3682043 L153.417227,42.3682043 C153.657611,42.5184496 153.860434,42.7062562 154.078282,42.8790383 C154.273593,43.0292836 154.491441,43.1645043 154.664216,43.3297742 C154.874552,43.5476298 155.024792,43.7955346 155.205079,44.035927 C155.332783,44.2162214 155.505558,44.3739789 155.610726,44.5692978 C155.783502,44.8697884 155.881158,45.1853035 156.001349,45.5008186 C156.061445,45.6736007 156.166613,45.8313582 156.211685,46.0116526 C156.349993,46.5235888 156.420705,47.0514259 156.42202,47.5817159 L156.42202,202.026361 L216.57798,167.38731 L216.57798,88.4334101 C216.57798,87.9075516 216.653099,87.3741808 216.788315,86.8708591 C216.840899,86.6905647 216.938555,86.5328072 216.998651,86.3600251 C217.118842,86.04451 217.22401,85.7214826 217.389274,85.4285043 C217.501954,85.2331854 217.667217,85.0754278 217.794921,84.8951335 C217.975208,84.654741 218.125448,84.4068363 218.335784,84.1964929 C218.508559,84.0237108 218.726407,83.8960023 218.921718,83.745757 C219.147078,83.5654627 219.342389,83.3701438 219.582773,83.2274108 L219.590285,83.2274108 L291.787953,41.6620515 C293.647739,40.5900491 295.937752,40.5900491 297.797539,41.6620515 L369.987695,83.2274108 C370.243102,83.3776561 370.438414,83.5654627 370.663773,83.7382448 C370.851573,83.8884901 371.06942,84.0237108 371.242196,84.1889806 C371.452532,84.4068363 371.602771,84.654741 371.783059,84.8951335 C371.918274,85.0754278 372.083538,85.2331854 372.188706,85.4285043 C372.361481,85.7214826 372.459137,86.04451 372.579329,86.3600251 C372.646937,86.5328072 372.744593,86.6905647 372.789664,86.8708591 L372.789664,86.8708591 Z M360.965803,167.38731 L360.965803,98.8454086 L335.703005,113.389153 L300.802332,133.48446 L300.802332,202.026361 L360.973315,167.38731 L360.965803,167.38731 Z M288.775647,291.377235 L288.775647,222.79026 L254.445886,242.39727 L156.414508,298.348616 L156.414508,367.581646 L288.775647,291.377235 Z M12.0341966,57.9862022 L12.0341966,291.377235 L144.380312,367.574133 L144.380312,298.356129 L75.2400209,259.224743 L75.217485,259.209718 L75.1874371,259.194694 C74.9545656,259.059473 74.759254,258.864154 74.5414065,258.698884 C74.353607,258.548639 74.1357595,258.428443 73.9704958,258.263173 L73.9554719,258.240636 C73.7601603,258.05283 73.6249446,257.819949 73.459681,257.609606 C73.3094413,257.406775 73.1291537,257.233993 73.008962,257.023649 L73.00145,257.001113 C72.8662343,256.775745 72.7836025,256.505303 72.6859468,256.249886 C72.588291,256.024518 72.4605873,255.814175 72.4004914,255.573782 L72.4004914,255.56627 C72.3253716,255.280804 72.3103476,254.980313 72.2802997,254.687335 C72.2502517,254.461967 72.1901559,254.236599 72.1901559,254.011231 L72.1901559,92.6252536 L37.2969952,72.5224339 L12.0341966,57.9937144 L12.0341966,57.9862022 Z M78.2147662,12.9576889 L18.0663189,47.5817159 L78.1997422,82.2057428 L138.340677,47.5742036 L78.1997422,12.9576889 L78.2147662,12.9576889 Z M109.494663,229.040464 L144.387824,208.952669 L144.387824,57.9862022 L119.125025,72.5299462 L84.2243525,92.6252536 L84.2243525,243.591721 L109.494663,229.040464 Z M294.792746,53.8168954 L234.651811,88.4409223 L294.792746,123.064949 L354.926169,88.4334101 L294.792746,53.8168954 Z M288.775647,133.48446 L253.874975,113.389153 L228.612176,98.8454086 L228.612176,167.38731 L263.505337,187.475105 L288.775647,202.026361 L288.775647,133.48446 Z M150.389898,287.94413 L238.603114,237.581909 L282.698453,212.415823 L222.60259,177.814333 L153.409715,217.651871 L90.3466186,253.958645 L150.389898,287.94413 Z" id="Shape"></path>
        </g>
    </g>
</svg>